<?xml version="1.0" encoding="utf-8"?>
<!-- Generator: Adobe Illustrator 24.0.2, SVG Export Plug-In . SVG Version: 6.00 Build 0)  -->
<svg version="1.1" id="Capa_1" xmlns="http://www.w3.org/2000/svg" xmlns:xlink="http://www.w3.org/1999/xlink" x="0px" y="0px"
	 viewBox="0 0 58.8 74.9" enable-background="new 0 0 58.8 74.9" xml:space="preserve">
<g>
	<g>
		<path fill="#11B1E9" d="M56.2,25.9c-0.4-0.4-0.9-0.6-1.5-0.6c-0.5,0-1.1,0.2-1.5,0.6l-3.6,3.6c-0.2,0.2-0.4,0.1-0.5,0
			c-0.4-0.4-0.9-0.8-1.3-1.2c-0.2-0.1-0.2-0.4,0-0.6l6.9-6.9c0.8-0.8,0.8-2.2,0-3c-0.4-0.4-0.9-0.6-1.5-0.6c-0.5,0-1.1,0.2-1.5,0.6
			l-7.6,7.6c-0.1,0.1-0.3,0.1-0.5,0.1c-0.6-0.3-1.1-0.6-1.7-0.9c-0.2-0.1-0.3-0.4-0.1-0.6l3.5-3.5c0.8-0.8,0.8-2.2,0-3
			c-0.4-0.4-0.9-0.6-1.5-0.6c-0.5,0-1.1,0.2-1.5,0.6l-5.3,5.3c-0.1,0.1-0.2,0.1-0.3,0.1c-2.9-0.6-6-0.5-9.2,0
			c-0.6,0.1-0.9,0.3-0.9,1c0,4.6,0,9.3,0,13.9v0.1c0,0.3,0.3,0.5,0.6,0.3c0,0,0,0,0,0c2-1.2,4.2-1.6,6.5-1.2c4,0.7,7.1,3.9,7.7,8.2
			c0.6,3.8-1.6,7.8-5.2,9.6c-3.6,1.8-8,1.1-10.9-1.7c-2-1.9-2.8-4.3-2.8-7.1c0-14.5,0-29,0-43.5c0-0.3-0.4-0.5-0.7-0.3L8.8,15.4
			c-0.3,0.3-0.5,0.7-0.5,1.1c0,10,0,20,0,30c0,1.5,0.2,3.1,0.5,4.5l0,0c0,0.1,0,0.3-0.1,0.4l-5.8,5.8c-0.8,0.8-0.8,2.2,0,3
			c0.4,0.4,0.9,0.6,1.5,0.6c0.5,0,1.1-0.2,1.5-0.6l4-4c0.2-0.2,0.5-0.1,0.6,0.1c0.2,0.5,0.5,1,0.7,1.5c0.1,0.2,0.1,0.3-0.1,0.5
			l-8.5,8.5c-0.8,0.8-0.8,2.2,0,3c0.4,0.4,0.9,0.6,1.5,0.6c0.5,0,1.1-0.2,1.5-0.6l7.9-7.9c0.2-0.2,0.4-0.1,0.6,0
			c0.4,0.5,0.8,0.9,1.2,1.3c0.2,0.2,0.2,0.4,0,0.5l-3.6,3.6c-0.8,0.8-0.8,2.2,0,3c0.4,0.4,0.9,0.6,1.5,0.6s1.1-0.2,1.5-0.6l4-4
			c0.1-0.1,0.3-0.1,0.5,0c2.7,1.8,5.8,3,9,3.6c2.7,0.5,5.4,0.5,8.2,0c5.9-1.1,10.9-4.2,14.4-8.5c3.8-4.7,5.8-10.8,5.2-17.1
			c-0.4-4.1-1.6-7.7-3.7-10.9c-0.1-0.2-0.1-0.4,0-0.5l3.9-3.9C57,28,57,26.7,56.2,25.9z"/>
	</g>
</g>
</svg>
